<svg version="1.1" id="Layer_1" xmlns="http://www.w3.org/2000/svg" xmlns:xlink="http://www.w3.org/1999/xlink" x="0px" y="0px"
	 width="100%" viewBox="0 0 524 145" enable-background="new 0 0 524 145" xml:space="preserve">
<path fill="#FEFEFE" opacity="1.000000" stroke="none" 
	d="
M349.000000,146.000000 
	C232.666687,146.000000 116.833374,146.000000 1.000047,146.000000 
	C1.000031,97.666695 1.000031,49.333393 1.000015,1.000066 
	C175.666611,1.000044 350.333221,1.000044 524.999878,1.000022 
	C524.999878,49.333263 524.999878,97.666527 524.999939,145.999893 
	C466.500000,146.000000 408.000000,146.000000 349.000000,146.000000 
M120.973320,111.306549 
	C120.317162,108.762024 119.871719,106.140251 118.971695,103.685135 
	C111.393448,83.012764 110.981224,62.421997 119.578911,41.938858 
	C122.057907,36.032902 120.925369,30.307943 116.255203,26.666410 
	C111.724152,23.133352 105.532852,23.238279 101.033646,26.924370 
	C96.604042,30.553448 95.684349,36.466251 98.333862,42.360748 
	C99.889687,45.822060 101.460732,49.373138 102.278023,53.049866 
	C104.026077,60.913769 100.656158,66.265076 92.752159,66.681206 
	C80.672302,67.317200 68.510490,67.371597 56.432430,66.738670 
	C47.760700,66.284248 44.261829,60.727352 46.378971,52.144577 
	C47.360832,48.164158 49.491318,44.476856 50.972347,40.607399 
	C52.994286,35.324734 51.285751,29.630962 46.831676,26.366570 
	C42.568096,23.241789 36.640816,23.334454 32.393330,26.592302 
	C28.045744,29.926929 26.432941,35.775234 28.627106,40.955177 
	C37.649239,62.254463 37.572128,83.581612 28.977333,104.967720 
	C26.524437,111.071167 27.836252,116.823662 32.443218,120.244553 
	C37.137280,123.730133 43.318626,123.536018 47.620689,119.767944 
	C52.272106,115.693878 53.070614,110.109833 49.976749,103.892136 
	C48.721558,101.369614 47.271435,98.870529 46.508236,96.190414 
	C44.135174,87.856995 47.297829,81.507538 54.472748,80.249817 
	C67.708260,77.929726 80.987839,78.037506 94.235100,80.251770 
	C98.837448,81.021049 102.464256,83.797615 102.230728,88.427788 
	C101.973000,93.537552 100.592560,98.786125 98.676338,103.563148 
	C96.663689,108.580551 95.778572,113.162186 99.095993,117.691376 
	C101.966270,121.610100 105.978493,123.487251 110.875824,122.527580 
	C116.561241,121.413467 119.856133,117.800591 120.973320,111.306549 
M320.138397,70.591423 
	C320.587311,73.820122 318.361816,73.458778 316.342590,73.457176 
	C301.684113,73.445503 287.025604,73.451164 272.367126,73.451324 
	C270.635468,73.451347 268.903809,73.451324 266.983063,73.451324 
	C266.983063,76.070251 266.983093,77.894859 266.983063,79.719467 
	C266.982910,87.681580 273.161255,93.858253 281.132935,93.859070 
	C298.123474,93.860809 315.113983,93.859596 332.104523,93.859589 
	C334.045532,93.859589 335.986542,93.859589 337.993134,93.859589 
	C337.993134,91.287575 337.993134,89.345917 337.993134,86.943695 
	C320.062378,86.943695 302.319824,86.943695 284.488586,86.943695 
	C284.488586,84.423431 284.488586,82.378456 284.488586,79.973602 
	C302.213074,79.973602 319.643311,79.973602 337.206848,79.973602 
	C337.206848,73.201859 337.206848,66.798668 337.206848,59.969475 
	C328.273285,59.969475 319.675323,59.969475 310.741425,59.969475 
	C310.978638,58.292000 311.147766,57.095695 311.352600,55.647057 
	C320.833496,55.647057 329.939636,55.647057 339.205292,55.647057 
	C339.205292,53.272888 339.205292,51.220596 339.205292,49.293259 
	C314.278687,49.293259 289.695648,49.293259 265.222290,49.293259 
	C265.222290,51.553768 265.222290,53.493801 265.222290,55.860352 
	C273.577057,55.860352 281.701416,55.938744 289.822845,55.819450 
	C292.819519,55.775433 294.253235,56.524445 292.823456,60.228615 
	C284.376526,60.228615 275.798370,60.228615 267.158569,60.228615 
	C267.158569,62.688026 267.158569,64.629478 267.158569,67.017006 
	C268.950684,67.017006 270.573456,67.016998 272.196228,67.016998 
	C286.854736,67.017021 301.513275,66.998528 316.171661,67.041237 
	C317.942474,67.046394 320.543610,66.113731 320.138397,70.591423 
M485.500000,19.978697 
	C470.573395,19.978697 455.646820,19.978697 440.860535,19.978697 
	C440.860535,22.512587 440.860535,24.397350 440.860535,26.791756 
	C458.673645,26.791756 476.076569,26.791756 493.562500,26.791756 
	C493.562500,29.061172 493.562500,30.809111 493.562500,33.122883 
	C475.794067,33.122883 458.257935,33.122883 440.442566,33.122883 
	C440.442566,35.170441 440.446075,36.650795 440.442047,38.131134 
	C440.411865,49.221996 443.722687,52.557156 454.764771,52.557606 
	C457.930542,52.557735 461.122467,52.329556 464.247955,52.684978 
	C465.351288,52.810452 466.292175,54.364220 467.307251,55.265881 
	C466.982147,55.717075 466.657074,56.168266 466.332001,56.619461 
	C457.216461,56.619461 448.100922,56.619461 438.720215,56.619461 
	C438.720215,58.865208 438.720215,60.758423 438.720215,62.784786 
	C463.566010,62.784786 488.147217,62.784786 512.758179,62.784786 
	C512.758179,60.638031 512.758179,58.731594 512.758179,56.442410 
	C504.527496,56.442410 496.552856,56.535343 488.584198,56.358265 
	C487.118896,56.325703 485.677917,55.198116 484.225708,54.575970 
	C485.627136,53.903217 487.014282,52.686005 488.432312,52.648857 
	C495.873291,52.453938 503.322083,52.557697 510.733948,52.557697 
	C510.733948,50.051384 510.733948,48.140804 510.733948,45.865005 
	C493.021820,45.865005 475.592590,45.865005 458.115143,45.865005 
	C458.115143,43.738354 458.115143,41.995228 458.115143,39.815731 
	C475.767914,39.815731 493.179016,39.815731 510.722717,39.815731 
	C510.722717,32.987953 510.722717,26.603514 510.722717,19.978695 
	C502.450836,19.978695 494.475403,19.978695 485.500000,19.978697 
M372.544006,67.547646 
	C389.651184,67.547646 406.758392,67.547646 423.926666,67.547646 
	C423.926666,65.009438 423.926666,63.092197 423.926666,60.742752 
	C406.254456,60.742752 388.837067,60.742752 371.389099,60.742752 
	C371.389099,49.105583 371.389099,37.909126 371.389099,26.229038 
	C389.154022,26.229038 406.549438,26.229038 424.009338,26.229038 
	C424.009338,23.959585 424.009338,22.182123 424.009338,20.253998 
	C400.589996,20.253998 377.350037,20.253998 353.812775,20.253998 
	C353.812775,32.825733 353.762329,45.129726 353.886444,57.431969 
	C353.899658,58.742928 354.771240,60.146160 355.521057,61.331757 
	C359.315735,67.331825 365.075989,68.414986 372.544006,67.547646 
M324.393219,19.998032 
	C309.931061,19.998032 295.468903,19.998030 281.006744,19.998032 
	C267.940186,19.998034 266.557037,21.448492 267.001587,34.684582 
	C267.267578,42.604855 269.686127,44.978840 277.678894,44.993942 
	C292.473480,45.021893 307.271484,44.805344 322.061707,45.059731 
	C335.641266,45.293289 338.369965,44.658497 337.356262,27.491377 
	C337.336792,27.161865 337.201630,26.838022 337.191315,26.509310 
	C337.062225,22.395296 334.443665,20.667454 330.830841,20.122974 
	C329.039673,19.853031 327.181763,20.025640 324.393219,19.998032 
M203.455582,60.530266 
	C206.282425,60.525986 209.116348,60.649281 211.934708,60.492481 
	C219.163010,60.090336 220.965561,58.167461 221.001190,50.983494 
	C221.033325,44.507778 221.007965,38.031780 221.007965,31.101984 
	C227.381516,31.413145 224.213776,27.176003 224.886475,23.932636 
	C219.239090,23.932636 214.149216,23.932636 209.110168,23.932636 
	C208.878113,21.435097 208.686569,19.373703 208.518250,17.562325 
	C202.443649,17.562325 196.886520,17.562325 191.290588,17.562325 
	C191.179871,19.890570 191.088547,21.810793 190.976913,24.158215 
	C185.525208,24.158215 180.446808,24.158215 175.145279,24.158215 
	C175.456421,27.421049 173.475037,31.244631 178.992447,31.211777 
	C178.992447,38.101303 178.942795,44.742012 179.006424,51.381634 
	C179.069870,58.000889 180.879044,60.043167 187.509903,60.416470 
	C192.483109,60.696457 197.482620,60.509304 203.455582,60.530266 
M229.448959,28.560928 
	C229.448959,42.313828 229.448959,56.066723 229.448959,69.812553 
	C235.523117,69.812553 241.060440,69.812553 246.970520,69.812553 
	C246.970520,60.369171 246.970520,51.299751 246.970520,41.726673 
	C250.074127,41.726673 252.800049,41.726673 255.648590,41.726673 
	C255.648590,39.293808 255.648590,37.374565 255.648590,34.988762 
	C252.711487,34.988762 249.975662,34.988762 246.789001,34.988762 
	C246.789001,29.472799 246.789001,24.408117 246.789001,18.981815 
	C243.543869,18.981815 240.750977,18.981815 237.958084,18.981815 
	C235.212418,18.981815 232.466736,18.981815 229.449097,18.981815 
	C229.449097,22.303074 229.449097,24.943090 229.448959,28.560928 
M27.275692,137.388702 
	C40.665955,142.666748 53.954937,139.774857 62.181919,129.792542 
	C70.673767,119.488853 71.625320,105.393066 64.520576,94.516197 
	C62.863583,91.979454 60.994846,88.845230 57.474079,91.179657 
	C54.153027,93.381676 56.784595,95.889465 57.806419,98.507812 
	C59.518200,102.894112 61.621037,107.632957 61.451874,112.144417 
	C61.084175,121.950562 54.040951,129.673264 45.141617,131.872147 
	C36.300724,134.056580 27.185402,130.657028 21.815971,123.172859 
	C16.455957,115.701813 16.441761,106.250633 21.905817,97.962425 
	C23.455481,95.611794 25.183064,93.219765 22.018307,91.148537 
	C19.059422,89.212051 17.204201,91.287132 15.528045,93.663803 
	C5.135283,108.399948 10.005202,127.605682 27.275692,137.388702 
M94.802505,10.167738 
	C79.696976,19.473852 74.868423,36.408421 83.305801,51.029865 
	C84.876060,53.751015 86.525208,58.035236 90.662628,55.822884 
	C95.257225,53.366066 91.700890,50.297039 90.120049,47.548542 
	C85.551552,39.605625 85.532013,31.552893 90.730202,24.039907 
	C95.850883,16.638950 103.163078,13.015862 112.288574,14.629161 
	C121.693779,16.291910 127.695007,21.960522 130.114685,31.266172 
	C131.873611,38.030704 129.980377,43.936737 126.291176,49.684315 
	C125.389000,51.089848 126.354439,53.694141 126.461205,55.747292 
	C128.451614,55.152500 130.490158,54.676083 132.405624,53.897030 
	C133.053177,53.633656 133.419876,52.623516 133.862869,51.921787 
	C140.740372,41.027531 139.549957,26.278606 131.023743,16.636156 
	C122.162094,6.614371 108.440094,4.008380 94.802505,10.167738 
M90.613304,122.694763 
	C85.422890,114.340149 85.585098,106.046455 91.059746,97.919624 
	C92.675499,95.521118 94.143379,93.072914 91.060921,91.084724 
	C88.074287,89.158340 86.208443,91.398415 84.572113,93.725677 
	C76.182823,105.657379 78.009445,122.563911 88.780907,132.343689 
	C100.044815,142.570572 117.130966,142.757446 128.389755,132.776901 
	C139.538620,122.893806 141.604233,105.953087 133.166412,93.818634 
	C131.554108,91.499969 129.695953,89.200287 126.694054,91.068253 
	C123.570023,93.012238 125.104782,95.539871 126.616058,97.928612 
	C133.527039,108.852203 131.417618,121.400269 121.557701,128.403763 
	C111.710182,135.398453 99.354187,133.336685 90.613304,122.694763 
M17.868479,37.306454 
	C18.068092,35.161552 17.945995,32.925690 18.522343,30.887310 
	C21.188076,21.459358 27.510475,15.716665 37.163670,14.468067 
	C45.997742,13.325418 53.189232,16.897779 58.054615,24.397488 
	C63.182095,32.301205 62.954205,40.400852 57.926216,48.319443 
	C56.379204,50.755833 54.094986,53.394409 57.469624,55.591080 
	C60.927048,57.841633 62.807743,54.882904 64.520737,52.267117 
	C68.432457,46.293793 69.690979,39.745522 69.035103,32.722134 
	C67.918106,20.760702 58.849491,10.525887 46.639519,7.502180 
	C34.311256,4.449180 21.440046,9.732204 14.657278,20.629375 
	C8.212364,30.983753 8.707714,44.979332 16.225420,53.818081 
	C17.350704,55.141106 20.485661,56.112175 21.949905,55.493172 
	C24.599136,54.373215 23.717049,51.969067 22.510468,49.586342 
	C20.665495,45.942940 19.422239,41.994835 17.868479,37.306454 
M192.672577,93.862495 
	C210.916443,93.862495 229.160324,93.862495 247.519226,93.862495 
	C247.519226,91.279167 247.519226,89.253563 247.519226,86.882896 
	C229.767715,86.882896 212.355606,86.882896 194.398102,86.882896 
	C194.398102,79.153900 194.398102,71.760498 194.398102,64.429199 
	C188.422043,64.429199 183.002731,64.429199 177.137497,64.429199 
	C177.137497,69.495247 177.137329,74.280556 177.137512,79.065865 
	C177.137863,87.674614 183.237381,93.858459 192.672577,93.862495 
M471.508362,86.986160 
	C467.083282,86.986160 462.658203,86.986160 457.828125,86.986160 
	C457.828125,80.329330 457.828125,74.264946 457.828125,68.325157 
	C451.851471,68.325157 446.303192,68.325157 440.457825,68.325157 
	C440.457825,72.963135 440.432434,77.268105 440.464142,81.572639 
	C440.504730,87.076828 447.374084,93.843918 452.953033,93.849083 
	C471.081573,93.865891 489.210083,93.861649 507.338623,93.843315 
	C508.773315,93.841866 510.207825,93.669601 511.590210,93.580109 
	C511.590210,91.204948 511.590210,89.283531 511.590210,86.986160 
	C498.388123,86.986160 485.446564,86.986160 471.508362,86.986160 
M424.199310,93.848412 
	C425.070374,91.814163 425.941437,89.779922 427.040802,87.212540 
	C401.202148,87.212540 376.678741,87.212540 352.168579,87.212540 
	C352.168579,89.488716 352.168579,91.526367 352.168579,93.856316 
	C376.097137,93.856316 399.671906,93.856316 424.199310,93.848412 
M250.502747,123.021927 
	C253.194016,125.253014 253.904160,130.017319 259.226715,129.754150 
	C259.226715,123.035332 259.295807,116.582855 259.154938,110.134972 
	C259.132904,109.125687 258.156433,108.137260 257.621277,107.139206 
	C257.005219,108.222511 255.926956,109.277260 255.857910,110.394371 
	C255.631866,114.051476 255.773071,117.731270 255.773071,121.402344 
	C255.349823,121.474304 254.926575,121.546265 254.503342,121.618217 
	C250.417694,116.865555 246.332047,112.112900 241.414062,106.392021 
	C241.414062,114.333549 241.312225,120.787918 241.519394,127.232361 
	C241.552017,128.246658 242.984131,129.215973 243.769165,130.206085 
	C244.192230,129.912506 244.615311,129.618927 245.038391,129.325348 
	C245.038391,127.344971 245.038391,125.364586 245.038391,123.384209 
	C245.038391,121.402504 245.038391,119.420799 245.038391,116.317490 
	C247.310242,119.123184 248.670288,120.802818 250.502747,123.021927 
M430.688690,129.050034 
	C437.898193,130.834839 443.769562,127.754494 445.520569,121.268654 
	C447.145691,115.249146 443.515350,108.938194 437.477905,107.287384 
	C432.254303,105.859108 426.416748,108.664833 424.266083,113.637474 
	C421.836121,119.255821 423.941467,124.869621 430.688690,129.050034 
M372.345032,108.902626 
	C367.924835,108.004951 363.504608,107.107285 358.659241,106.123268 
	C358.659241,114.609497 358.659241,121.847488 358.659241,129.035156 
	C368.203125,130.677231 373.251007,129.112381 376.019470,123.789963 
	C378.486969,119.046173 377.446503,114.101448 372.345032,108.902626 
M467.006470,119.440193 
	C470.823944,122.782539 472.226379,128.925568 478.884949,130.039871 
	C478.884949,123.075806 478.974487,116.764000 478.801270,110.459412 
	C478.770569,109.342148 477.645447,108.254944 477.025696,107.153862 
	C476.388824,108.237846 475.269867,109.292931 475.202820,110.411072 
	C474.973938,114.228951 475.115143,118.069008 475.115143,123.118645 
	C470.006104,117.080696 465.883148,112.208138 461.288879,106.778564 
	C461.288879,115.017159 461.288879,122.381805 461.288879,130.956192 
	C466.495361,126.664543 462.669800,121.391228 464.846466,117.277954 
	C465.463623,117.845390 466.016418,118.353630 467.006470,119.440193 
M181.067841,122.585342 
	C182.299683,117.025383 186.214951,121.277283 189.082352,119.787781 
	C189.082352,122.774872 188.914810,125.088104 189.172134,127.353058 
	C189.263702,128.158997 190.386719,128.847748 191.038910,129.589996 
	C191.665619,128.821945 192.819046,128.065460 192.836227,127.284004 
	C192.981369,120.678474 192.919052,114.068398 192.919052,107.145393 
	C191.622635,107.145393 189.912308,107.001091 189.881714,107.166817 
	C189.331039,110.150398 188.983261,113.171432 188.594955,116.162201 
	C186.106552,116.162201 183.824524,116.162201 181.097031,116.162201 
	C181.097031,113.072968 181.097031,110.149429 181.097031,107.225891 
	C180.689911,106.982063 180.282791,106.738228 179.875671,106.494392 
	C179.037140,107.395302 177.507095,108.270515 177.472504,109.201294 
	C177.250854,115.165550 177.242676,121.146416 177.471008,127.110077 
	C177.508331,128.084656 179.065125,129.001068 179.919632,129.944351 
	C180.302063,129.608978 180.684479,129.273590 181.066910,128.938202 
	C181.066910,127.127762 181.066910,125.317329 181.067841,122.585342 
M402.922333,126.641907 
	C404.262146,127.860016 405.601959,129.078125 407.200775,130.531693 
	C406.790802,126.311394 405.267242,122.676537 406.443207,120.500557 
	C410.148071,113.644989 407.496826,107.590721 399.662476,107.028969 
	C397.246704,106.855743 394.808014,107.002045 392.122711,107.002045 
	C392.122711,114.102386 392.005615,120.576958 392.240479,127.038734 
	C392.278687,128.089325 393.875305,129.083282 394.751587,130.103409 
	C395.214417,129.815079 395.677277,129.526733 396.140106,129.238388 
	C396.140106,122.955200 396.140106,116.672020 396.140106,108.466438 
	C399.520905,110.655617 402.959839,111.687721 403.682129,113.696579 
	C404.362091,115.587761 402.177734,118.508797 401.253540,120.976753 
	C400.809113,120.861732 400.364685,120.746704 399.920258,120.631683 
	C400.812225,122.406731 401.704163,124.181786 402.922333,126.641907 
M286.092590,118.285301 
	C286.092377,118.784378 286.094788,119.283470 286.091522,119.782532 
	C286.072235,122.729202 285.943481,125.913155 282.006287,125.872292 
	C278.076843,125.831505 278.008850,122.683022 278.041565,119.707970 
	C278.087036,115.574867 278.053009,111.440895 278.053009,107.307289 
	C277.566681,107.051987 277.080383,106.796677 276.594055,106.541374 
	C275.856567,107.596535 274.554352,108.615028 274.483002,109.713455 
	C274.224792,113.689323 274.290222,117.694572 274.402588,121.683968 
	C274.534058,126.351540 277.412476,129.412476 281.631714,129.613892 
	C285.929810,129.819077 289.541809,126.662666 289.837311,121.985352 
	C290.098969,117.842819 290.056824,113.660965 289.790710,109.519478 
	C289.724731,108.492554 288.272339,107.554710 287.457245,106.575928 
	C287.002350,106.865509 286.547485,107.155083 286.092621,107.444664 
	C286.092621,110.746933 286.092621,114.049194 286.092590,118.285301 
M500.657196,116.774422 
	C498.409393,116.774422 496.161591,116.774422 494.040222,116.774422 
	C494.040222,121.364655 494.040222,125.292328 494.040222,129.180206 
	C506.857819,130.702118 510.856567,130.040710 511.238678,125.977875 
	C506.629364,125.977875 502.048004,125.977875 497.502380,125.977875 
	C497.502380,123.794884 497.502380,122.054199 497.502380,120.037323 
	C501.405914,120.037323 505.047485,120.151550 508.673126,119.961662 
	C509.650970,119.910446 510.580475,118.936417 511.532196,118.385994 
	C510.535980,117.848618 509.576385,116.953362 508.536102,116.846977 
	C506.238739,116.612038 503.900757,116.774315 500.657196,116.774422 
M209.338257,125.642319 
	C208.987671,126.822960 208.637085,128.003616 208.018799,130.085754 
	C215.406830,127.848106 213.233109,120.168976 217.555222,116.682358 
	C218.629684,119.297836 219.552444,121.893074 220.750153,124.354515 
	C221.800949,126.514030 221.417770,130.397293 226.363037,129.172775 
	C223.388290,121.855675 220.523804,114.809746 217.195740,106.623573 
	C214.399796,113.462685 212.044724,119.223434 209.338257,125.642319 
M304.965851,107.402275 
	C304.965851,114.818710 304.965851,122.235146 304.965851,129.607224 
	C316.992981,130.581619 317.478271,130.437012 316.860565,125.695282 
	C314.202667,125.695282 311.478760,125.695282 308.616821,125.695282 
	C308.616821,120.204308 308.571777,115.216660 308.638306,110.230507 
	C308.666107,108.147697 308.449829,106.498741 304.965851,107.402275 
M499.718689,107.036644 
	C497.790863,107.036644 495.863037,107.036644 493.935181,107.036644 
	C493.733063,107.450600 493.530914,107.864563 493.328796,108.278519 
	C494.164581,109.084747 494.966125,110.541733 495.841949,110.587852 
	C500.328674,110.824089 504.838257,110.789856 509.330200,110.609436 
	C510.121063,110.577667 510.866028,109.402763 511.632202,108.755791 
	C510.803436,108.184219 510.006866,107.184898 509.140015,107.119736 
	C506.322968,106.907982 503.480255,107.038124 499.718689,107.036644 
z"/>
<path fill="#0571BD" opacity="1.000000" stroke="none" 
	d="
M120.935013,111.711334 
	C119.856133,117.800591 116.561241,121.413467 110.875824,122.527580 
	C105.978493,123.487251 101.966270,121.610100 99.095993,117.691376 
	C95.778572,113.162186 96.663689,108.580551 98.676338,103.563148 
	C100.592560,98.786125 101.973000,93.537552 102.230728,88.427788 
	C102.464256,83.797615 98.837448,81.021049 94.235100,80.251770 
	C80.987839,78.037506 67.708260,77.929726 54.472748,80.249817 
	C47.297829,81.507538 44.135174,87.856995 46.508236,96.190414 
	C47.271435,98.870529 48.721558,101.369614 49.976749,103.892136 
	C53.070614,110.109833 52.272106,115.693878 47.620689,119.767944 
	C43.318626,123.536018 37.137280,123.730133 32.443218,120.244553 
	C27.836252,116.823662 26.524437,111.071167 28.977333,104.967720 
	C37.572128,83.581612 37.649239,62.254463 28.627106,40.955177 
	C26.432941,35.775234 28.045744,29.926929 32.393330,26.592302 
	C36.640816,23.334454 42.568096,23.241789 46.831676,26.366570 
	C51.285751,29.630962 52.994286,35.324734 50.972347,40.607399 
	C49.491318,44.476856 47.360832,48.164158 46.378971,52.144577 
	C44.261829,60.727352 47.760700,66.284248 56.432430,66.738670 
	C68.510490,67.371597 80.672302,67.317200 92.752159,66.681206 
	C100.656158,66.265076 104.026077,60.913769 102.278023,53.049866 
	C101.460732,49.373138 99.889687,45.822060 98.333862,42.360748 
	C95.684349,36.466251 96.604042,30.553448 101.033646,26.924370 
	C105.532852,23.238279 111.724152,23.133352 116.255203,26.666410 
	C120.925369,30.307943 122.057907,36.032902 119.578911,41.938858 
	C110.981224,62.421997 111.393448,83.012764 118.971695,103.685135 
	C119.871719,106.140251 120.317162,108.762024 120.935013,111.711334 
z"/>
<path fill="#0A3758" opacity="1.000000" stroke="none" 
	d="
M320.138489,70.103851 
	C320.543610,66.113731 317.942474,67.046394 316.171661,67.041237 
	C301.513275,66.998528 286.854736,67.017021 272.196228,67.016998 
	C270.573456,67.016998 268.950684,67.017006 267.158569,67.017006 
	C267.158569,64.629478 267.158569,62.688026 267.158569,60.228615 
	C275.798370,60.228615 284.376526,60.228615 292.823456,60.228615 
	C294.253235,56.524445 292.819519,55.775433 289.822845,55.819450 
	C281.701416,55.938744 273.577057,55.860352 265.222290,55.860352 
	C265.222290,53.493801 265.222290,51.553768 265.222290,49.293259 
	C289.695648,49.293259 314.278687,49.293259 339.205292,49.293259 
	C339.205292,51.220596 339.205292,53.272888 339.205292,55.647057 
	C329.939636,55.647057 320.833496,55.647057 311.352600,55.647057 
	C311.147766,57.095695 310.978638,58.292000 310.741425,59.969475 
	C319.675323,59.969475 328.273285,59.969475 337.206848,59.969475 
	C337.206848,66.798668 337.206848,73.201859 337.206848,79.973602 
	C319.643311,79.973602 302.213074,79.973602 284.488586,79.973602 
	C284.488586,82.378456 284.488586,84.423431 284.488586,86.943695 
	C302.319824,86.943695 320.062378,86.943695 337.993134,86.943695 
	C337.993134,89.345917 337.993134,91.287575 337.993134,93.859589 
	C335.986542,93.859589 334.045532,93.859589 332.104523,93.859589 
	C315.113983,93.859596 298.123474,93.860809 281.132935,93.859070 
	C273.161255,93.858253 266.982910,87.681580 266.983063,79.719467 
	C266.983093,77.894859 266.983063,76.070251 266.983063,73.451324 
	C268.903809,73.451324 270.635468,73.451347 272.367126,73.451324 
	C287.025604,73.451164 301.684113,73.445503 316.342590,73.457176 
	C318.361816,73.458778 320.587311,73.820122 320.138489,70.103851 
z"/>
<path fill="#0C3959" opacity="1.000000" stroke="none" 
	d="
M486.000000,19.978695 
	C494.475403,19.978695 502.450836,19.978695 510.722717,19.978695 
	C510.722717,26.603514 510.722717,32.987953 510.722717,39.815731 
	C493.179016,39.815731 475.767914,39.815731 458.115143,39.815731 
	C458.115143,41.995228 458.115143,43.738354 458.115143,45.865005 
	C475.592590,45.865005 493.021820,45.865005 510.733948,45.865005 
	C510.733948,48.140804 510.733948,50.051384 510.733948,52.557697 
	C503.322083,52.557697 495.873291,52.453938 488.432312,52.648857 
	C487.014282,52.686005 485.627136,53.903217 484.225708,54.575966 
	C485.677917,55.198116 487.118896,56.325703 488.584198,56.358265 
	C496.552856,56.535343 504.527496,56.442410 512.758179,56.442410 
	C512.758179,58.731594 512.758179,60.638031 512.758179,62.784786 
	C488.147217,62.784786 463.566010,62.784786 438.720215,62.784786 
	C438.720215,60.758423 438.720215,58.865208 438.720215,56.619461 
	C448.100922,56.619461 457.216461,56.619461 466.332001,56.619461 
	C466.657074,56.168266 466.982147,55.717075 467.307251,55.265881 
	C466.292175,54.364220 465.351288,52.810452 464.247955,52.684978 
	C461.122467,52.329556 457.930542,52.557735 454.764771,52.557606 
	C443.722687,52.557156 440.411865,49.221996 440.442047,38.131134 
	C440.446075,36.650795 440.442566,35.170441 440.442566,33.122883 
	C458.257935,33.122883 475.794067,33.122883 493.562500,33.122883 
	C493.562500,30.809111 493.562500,29.061172 493.562500,26.791756 
	C476.076569,26.791756 458.673645,26.791756 440.860535,26.791756 
	C440.860535,24.397350 440.860535,22.512587 440.860535,19.978697 
	C455.646820,19.978697 470.573395,19.978697 486.000000,19.978695 
z"/>
<path fill="#0A3758" opacity="1.000000" stroke="none" 
	d="
M372.054199,67.547585 
	C365.075989,68.414986 359.315735,67.331825 355.521057,61.331757 
	C354.771240,60.146160 353.899658,58.742928 353.886444,57.431969 
	C353.762329,45.129726 353.812775,32.825733 353.812775,20.253998 
	C377.350037,20.253998 400.589996,20.253998 424.009338,20.253998 
	C424.009338,22.182123 424.009338,23.959585 424.009338,26.229038 
	C406.549438,26.229038 389.154022,26.229038 371.389099,26.229038 
	C371.389099,37.909126 371.389099,49.105583 371.389099,60.742752 
	C388.837067,60.742752 406.254456,60.742752 423.926666,60.742752 
	C423.926666,63.092197 423.926666,65.009438 423.926666,67.547646 
	C406.758392,67.547646 389.651184,67.547646 372.054199,67.547585 
z"/>
<path fill="#023152" opacity="1.000000" stroke="none" 
	d="
M324.873657,19.998032 
	C327.181763,20.025640 329.039673,19.853031 330.830841,20.122974 
	C334.443665,20.667454 337.062225,22.395296 337.191315,26.509310 
	C337.201630,26.838022 337.336792,27.161865 337.356262,27.491377 
	C338.369965,44.658497 335.641266,45.293289 322.061707,45.059731 
	C307.271484,44.805344 292.473480,45.021893 277.678894,44.993942 
	C269.686127,44.978840 267.267578,42.604855 267.001587,34.684582 
	C266.557037,21.448492 267.940186,19.998034 281.006744,19.998032 
	C295.468903,19.998030 309.931061,19.998032 324.873657,19.998032 
M310.352234,35.878635 
	C311.684448,35.878544 313.017120,35.855118 314.348755,35.883293 
	C317.008087,35.939548 319.969116,35.627434 319.563293,32.319660 
	C319.409241,31.063772 316.282166,29.340382 314.451630,29.265776 
	C306.305420,28.933775 298.130005,28.931194 289.984589,29.272539 
	C288.224304,29.346304 286.544250,31.334335 284.827240,32.440632 
	C286.520660,33.586304 288.160095,35.612438 289.917175,35.720219 
	C296.387329,36.117085 302.896515,35.878304 310.352234,35.878635 
z"/>
<path fill="#053355" opacity="1.000000" stroke="none" 
	d="
M202.962997,60.530197 
	C197.482620,60.509304 192.483109,60.696457 187.509903,60.416470 
	C180.879044,60.043167 179.069870,58.000889 179.006424,51.381634 
	C178.942795,44.742012 178.992447,38.101303 178.992447,31.211777 
	C173.475037,31.244631 175.456421,27.421049 175.145279,24.158215 
	C180.446808,24.158215 185.525208,24.158215 190.976913,24.158215 
	C191.088547,21.810793 191.179871,19.890570 191.290588,17.562325 
	C196.886520,17.562325 202.443649,17.562325 208.518250,17.562325 
	C208.686569,19.373703 208.878113,21.435097 209.110168,23.932636 
	C214.149216,23.932636 219.239090,23.932636 224.886475,23.932636 
	C224.213776,27.176003 227.381516,31.413145 221.007965,31.101984 
	C221.007965,38.031780 221.033325,44.507778 221.001190,50.983494 
	C220.965561,58.167461 219.163010,60.090336 211.934708,60.492481 
	C209.116348,60.649281 206.282425,60.525986 202.962997,60.530197 
M204.012604,53.727970 
	C204.608521,53.206150 205.710205,52.696571 205.723190,52.160641 
	C205.876022,45.845943 205.941193,39.525517 205.791107,33.212261 
	C205.774689,32.522408 204.361664,31.463631 203.444809,31.260632 
	C195.788788,29.565504 193.998734,31.043877 193.997849,38.800537 
	C193.997620,40.798206 193.987503,42.795940 193.999527,44.793537 
	C194.060623,54.945377 193.001480,53.794685 204.012604,53.727970 
z"/>
<path fill="#0A3858" opacity="1.000000" stroke="none" 
	d="
M229.449036,28.072018 
	C229.449097,24.943090 229.449097,22.303074 229.449097,18.981815 
	C232.466736,18.981815 235.212418,18.981815 237.958084,18.981815 
	C240.750977,18.981815 243.543869,18.981815 246.789001,18.981815 
	C246.789001,24.408117 246.789001,29.472799 246.789001,34.988762 
	C249.975662,34.988762 252.711487,34.988762 255.648590,34.988762 
	C255.648590,37.374565 255.648590,39.293808 255.648590,41.726673 
	C252.800049,41.726673 250.074127,41.726673 246.970520,41.726673 
	C246.970520,51.299751 246.970520,60.369171 246.970520,69.812553 
	C241.060440,69.812553 235.523117,69.812553 229.448959,69.812553 
	C229.448959,56.066723 229.448959,42.313828 229.449036,28.072018 
z"/>
<path fill="#0A74BF" opacity="1.000000" stroke="none" 
	d="
M26.931812,137.225037 
	C10.005202,127.605682 5.135283,108.399948 15.528045,93.663803 
	C17.204201,91.287132 19.059422,89.212051 22.018307,91.148537 
	C25.183064,93.219765 23.455481,95.611794 21.905817,97.962425 
	C16.441761,106.250633 16.455957,115.701813 21.815971,123.172859 
	C27.185402,130.657028 36.300724,134.056580 45.141617,131.872147 
	C54.040951,129.673264 61.084175,121.950562 61.451874,112.144417 
	C61.621037,107.632957 59.518200,102.894112 57.806419,98.507812 
	C56.784595,95.889465 54.153027,93.381676 57.474079,91.179657 
	C60.994846,88.845230 62.863583,91.979454 64.520576,94.516197 
	C71.625320,105.393066 70.673767,119.488853 62.181919,129.792542 
	C53.954937,139.774857 40.665955,142.666748 26.931812,137.225037 
z"/>
<path fill="#0973BE" opacity="1.000000" stroke="none" 
	d="
M95.150742,10.028639 
	C108.440094,4.008380 122.162094,6.614371 131.023743,16.636156 
	C139.549957,26.278606 140.740372,41.027531 133.862869,51.921787 
	C133.419876,52.623516 133.053177,53.633656 132.405624,53.897030 
	C130.490158,54.676083 128.451614,55.152500 126.461205,55.747292 
	C126.354439,53.694141 125.389000,51.089848 126.291176,49.684315 
	C129.980377,43.936737 131.873611,38.030704 130.114685,31.266172 
	C127.695007,21.960522 121.693779,16.291910 112.288574,14.629161 
	C103.163078,13.015862 95.850883,16.638950 90.730202,24.039907 
	C85.532013,31.552893 85.551552,39.605625 90.120049,47.548542 
	C91.700890,50.297039 95.257225,53.366066 90.662628,55.822884 
	C86.525208,58.035236 84.876060,53.751015 83.305801,51.029865 
	C74.868423,36.408421 79.696976,19.473852 95.150742,10.028639 
z"/>
<path fill="#0A73BF" opacity="1.000000" stroke="none" 
	d="
M90.820206,123.002037 
	C99.354187,133.336685 111.710182,135.398453 121.557701,128.403763 
	C131.417618,121.400269 133.527039,108.852203 126.616058,97.928612 
	C125.104782,95.539871 123.570023,93.012238 126.694054,91.068253 
	C129.695953,89.200287 131.554108,91.499969 133.166412,93.818634 
	C141.604233,105.953087 139.538620,122.893806 128.389755,132.776901 
	C117.130966,142.757446 100.044815,142.570572 88.780907,132.343689 
	C78.009445,122.563911 76.182823,105.657379 84.572113,93.725677 
	C86.208443,91.398415 88.074287,89.158340 91.060921,91.084724 
	C94.143379,93.072914 92.675499,95.521118 91.059746,97.919624 
	C85.585098,106.046455 85.422890,114.340149 90.820206,123.002037 
z"/>
<path fill="#0973BE" opacity="1.000000" stroke="none" 
	d="
M17.896013,37.741264 
	C19.422239,41.994835 20.665495,45.942940 22.510468,49.586342 
	C23.717049,51.969067 24.599136,54.373215 21.949905,55.493172 
	C20.485661,56.112175 17.350704,55.141106 16.225420,53.818081 
	C8.707714,44.979332 8.212364,30.983753 14.657278,20.629375 
	C21.440046,9.732204 34.311256,4.449180 46.639519,7.502180 
	C58.849491,10.525887 67.918106,20.760702 69.035103,32.722134 
	C69.690979,39.745522 68.432457,46.293793 64.520737,52.267117 
	C62.807743,54.882904 60.927048,57.841633 57.469624,55.591080 
	C54.094986,53.394409 56.379204,50.755833 57.926216,48.319443 
	C62.954205,40.400852 63.182095,32.301205 58.054615,24.397488 
	C53.189232,16.897779 45.997742,13.325418 37.163670,14.468067 
	C27.510475,15.716665 21.188076,21.459358 18.522343,30.887310 
	C17.945995,32.925690 18.068092,35.161552 17.896013,37.741264 
z"/>
<path fill="#0B3859" opacity="1.000000" stroke="none" 
	d="
M192.202332,93.862488 
	C183.237381,93.858459 177.137863,87.674614 177.137512,79.065865 
	C177.137329,74.280556 177.137497,69.495247 177.137497,64.429199 
	C183.002731,64.429199 188.422043,64.429199 194.398102,64.429199 
	C194.398102,71.760498 194.398102,79.153900 194.398102,86.882896 
	C212.355606,86.882896 229.767715,86.882896 247.519226,86.882896 
	C247.519226,89.253563 247.519226,91.279167 247.519226,93.862495 
	C229.160324,93.862495 210.916443,93.862495 192.202332,93.862488 
z"/>
<path fill="#083657" opacity="1.000000" stroke="none" 
	d="
M472.006683,86.986160 
	C485.446564,86.986160 498.388123,86.986160 511.590210,86.986160 
	C511.590210,89.283531 511.590210,91.204948 511.590210,93.580109 
	C510.207825,93.669601 508.773315,93.841866 507.338623,93.843315 
	C489.210083,93.861649 471.081573,93.865891 452.953033,93.849083 
	C447.374084,93.843918 440.504730,87.076828 440.464142,81.572639 
	C440.432434,77.268105 440.457825,72.963135 440.457825,68.325157 
	C446.303192,68.325157 451.851471,68.325157 457.828125,68.325157 
	C457.828125,74.264946 457.828125,80.329330 457.828125,86.986160 
	C462.658203,86.986160 467.083282,86.986160 472.006683,86.986160 
z"/>
<path fill="#093657" opacity="1.000000" stroke="none" 
	d="
M423.723022,93.852364 
	C399.671906,93.856316 376.097137,93.856316 352.168579,93.856316 
	C352.168579,91.526367 352.168579,89.488716 352.168579,87.212540 
	C376.678741,87.212540 401.202148,87.212540 427.040802,87.212540 
	C425.941437,89.779922 425.070374,91.814163 423.723022,93.852364 
z"/>
<path fill="#15405F" opacity="1.000000" stroke="none" 
	d="
M250.266541,122.752190 
	C248.670288,120.802818 247.310242,119.123184 245.038391,116.317490 
	C245.038391,119.420799 245.038391,121.402504 245.038391,123.384209 
	C245.038391,125.364586 245.038391,127.344971 245.038391,129.325348 
	C244.615311,129.618927 244.192230,129.912506 243.769165,130.206085 
	C242.984131,129.215973 241.552017,128.246658 241.519394,127.232361 
	C241.312225,120.787918 241.414062,114.333549 241.414062,106.392021 
	C246.332047,112.112900 250.417694,116.865555 254.503342,121.618217 
	C254.926575,121.546265 255.349823,121.474304 255.773071,121.402344 
	C255.773071,117.731270 255.631866,114.051476 255.857910,110.394371 
	C255.926956,109.277260 257.005219,108.222511 257.621277,107.139206 
	C258.156433,108.137260 259.132904,109.125687 259.154938,110.134972 
	C259.295807,116.582855 259.226715,123.035332 259.226715,129.754150 
	C253.904160,130.017319 253.194016,125.253014 250.266541,122.752190 
z"/>
<path fill="#154060" opacity="1.000000" stroke="none" 
	d="
M430.323456,128.932709 
	C423.941467,124.869621 421.836121,119.255821 424.266083,113.637474 
	C426.416748,108.664833 432.254303,105.859108 437.477905,107.287384 
	C443.515350,108.938194 447.145691,115.249146 445.520569,121.268654 
	C443.769562,127.754494 437.898193,130.834839 430.323456,128.932709 
M441.257843,121.488960 
	C442.501190,116.262001 440.746582,112.270203 436.634644,110.970993 
	C433.013733,109.826920 429.422852,111.690872 427.839142,115.589050 
	C426.176117,119.682449 427.724121,122.883537 431.145111,125.011490 
	C435.202515,127.535309 438.407227,125.758072 441.257843,121.488960 
z"/>
<path fill="#1D4665" opacity="1.000000" stroke="none" 
	d="
M372.661621,109.119476 
	C377.446503,114.101448 378.486969,119.046173 376.019470,123.789963 
	C373.251007,129.112381 368.203125,130.677231 358.659241,129.035156 
	C358.659241,121.847488 358.659241,114.609497 358.659241,106.123268 
	C363.504608,107.107285 367.924835,108.004951 372.661621,109.119476 
M368.250061,110.891571 
	C366.346527,110.619278 364.442993,110.346977 362.308380,110.041626 
	C362.308380,115.733826 362.308380,120.940315 362.308380,126.135300 
	C367.086487,126.902802 370.989441,125.926971 372.752563,121.332123 
	C374.375916,117.101524 372.956573,113.567986 368.250061,110.891571 
z"/>
<path fill="#143F5F" opacity="1.000000" stroke="none" 
	d="
M466.787842,119.151031 
	C466.016418,118.353630 465.463623,117.845390 464.846466,117.277954 
	C462.669800,121.391228 466.495361,126.664543 461.288879,130.956192 
	C461.288879,122.381805 461.288879,115.017159 461.288879,106.778564 
	C465.883148,112.208138 470.006104,117.080696 475.115143,123.118645 
	C475.115143,118.069008 474.973938,114.228951 475.202820,110.411072 
	C475.269867,109.292931 476.388824,108.237846 477.025696,107.153862 
	C477.645447,108.254944 478.770569,109.342148 478.801270,110.459412 
	C478.974487,116.764000 478.884949,123.075806 478.884949,130.039871 
	C472.226379,128.925568 470.823944,122.782539 466.787842,119.151031 
z"/>
<path fill="#234C69" opacity="1.000000" stroke="none" 
	d="
M181.067383,123.046112 
	C181.066910,125.317329 181.066910,127.127762 181.066910,128.938202 
	C180.684479,129.273590 180.302063,129.608978 179.919632,129.944351 
	C179.065125,129.001068 177.508331,128.084656 177.471008,127.110077 
	C177.242676,121.146416 177.250854,115.165550 177.472504,109.201294 
	C177.507095,108.270515 179.037140,107.395302 179.875671,106.494392 
	C180.282791,106.738228 180.689911,106.982063 181.097031,107.225891 
	C181.097031,110.149429 181.097031,113.072968 181.097031,116.162201 
	C183.824524,116.162201 186.106552,116.162201 188.594955,116.162201 
	C188.983261,113.171432 189.331039,110.150398 189.881714,107.166817 
	C189.912308,107.001091 191.622635,107.145393 192.919052,107.145393 
	C192.919052,114.068398 192.981369,120.678474 192.836227,127.284004 
	C192.819046,128.065460 191.665619,128.821945 191.038910,129.589996 
	C190.386719,128.847748 189.263702,128.158997 189.172134,127.353058 
	C188.914810,125.088104 189.082352,122.774872 189.082352,119.787781 
	C186.214951,121.277283 182.299683,117.025383 181.067383,123.046112 
z"/>
<path fill="#113D5D" opacity="1.000000" stroke="none" 
	d="
M402.759216,126.299370 
	C401.704163,124.181786 400.812225,122.406731 399.920258,120.631683 
	C400.364685,120.746704 400.809113,120.861732 401.253540,120.976753 
	C402.177734,118.508797 404.362091,115.587761 403.682129,113.696579 
	C402.959839,111.687721 399.520905,110.655617 396.140106,108.466438 
	C396.140106,116.672020 396.140106,122.955200 396.140106,129.238388 
	C395.677277,129.526733 395.214417,129.815079 394.751587,130.103409 
	C393.875305,129.083282 392.278687,128.089325 392.240479,127.038734 
	C392.005615,120.576958 392.122711,114.102386 392.122711,107.002045 
	C394.808014,107.002045 397.246704,106.855743 399.662476,107.028969 
	C407.496826,107.590721 410.148071,113.644989 406.443207,120.500557 
	C405.267242,122.676537 406.790802,126.311394 407.200775,130.531693 
	C405.601959,129.078125 404.262146,127.860016 402.759216,126.299370 
z"/>
<path fill="#1C4664" opacity="1.000000" stroke="none" 
	d="
M286.092590,117.818382 
	C286.092621,114.049194 286.092621,110.746933 286.092621,107.444664 
	C286.547485,107.155083 287.002350,106.865509 287.457245,106.575928 
	C288.272339,107.554710 289.724731,108.492554 289.790710,109.519478 
	C290.056824,113.660965 290.098969,117.842819 289.837311,121.985352 
	C289.541809,126.662666 285.929810,129.819077 281.631714,129.613892 
	C277.412476,129.412476 274.534058,126.351540 274.402588,121.683968 
	C274.290222,117.694572 274.224792,113.689323 274.483002,109.713455 
	C274.554352,108.615028 275.856567,107.596535 276.594055,106.541374 
	C277.080383,106.796677 277.566681,107.051987 278.053009,107.307289 
	C278.053009,111.440895 278.087036,115.574867 278.041565,119.707970 
	C278.008850,122.683022 278.076843,125.831505 282.006287,125.872292 
	C285.943481,125.913155 286.072235,122.729202 286.091522,119.782532 
	C286.094788,119.283470 286.092377,118.784378 286.092590,117.818382 
z"/>
<path fill="#14405F" opacity="1.000000" stroke="none" 
	d="
M501.118286,116.774483 
	C503.900757,116.774315 506.238739,116.612038 508.536102,116.846977 
	C509.576385,116.953362 510.535980,117.848618 511.532196,118.385986 
	C510.580475,118.936417 509.650970,119.910446 508.673126,119.961662 
	C505.047485,120.151550 501.405914,120.037323 497.502380,120.037323 
	C497.502380,122.054199 497.502380,123.794884 497.502380,125.977875 
	C502.048004,125.977875 506.629364,125.977875 511.238678,125.977875 
	C510.856567,130.040710 506.857819,130.702118 494.040222,129.180206 
	C494.040222,125.292328 494.040222,121.364655 494.040222,116.774422 
	C496.161591,116.774422 498.409393,116.774422 501.118286,116.774483 
z"/>
<path fill="#184261" opacity="1.000000" stroke="none" 
	d="
M209.513947,125.313248 
	C212.044724,119.223434 214.399796,113.462685 217.195740,106.623573 
	C220.523804,114.809746 223.388290,121.855675 226.363037,129.172775 
	C221.417770,130.397293 221.800949,126.514030 220.750153,124.354515 
	C219.552444,121.893074 218.629684,119.297836 217.555222,116.682358 
	C213.233109,120.168976 215.406830,127.848106 208.018799,130.085754 
	C208.637085,128.003616 208.987671,126.822960 209.513947,125.313248 
z"/>
<path fill="#1B4564" opacity="1.000000" stroke="none" 
	d="
M305.344910,107.200035 
	C308.449829,106.498741 308.666107,108.147697 308.638306,110.230507 
	C308.571777,115.216660 308.616821,120.204308 308.616821,125.695282 
	C311.478760,125.695282 314.202667,125.695282 316.860565,125.695282 
	C317.478271,130.437012 316.992981,130.581619 304.965851,129.607224 
	C304.965851,122.235146 304.965851,114.818710 305.344910,107.200035 
z"/>
<path fill="#325873" opacity="1.000000" stroke="none" 
	d="
M500.183044,107.036644 
	C503.480255,107.038124 506.322968,106.907982 509.140015,107.119736 
	C510.006866,107.184898 510.803436,108.184219 511.632202,108.755783 
	C510.866028,109.402763 510.121063,110.577667 509.330200,110.609436 
	C504.838257,110.789856 500.328674,110.824089 495.841949,110.587852 
	C494.966125,110.541733 494.164581,109.084747 493.328796,108.278519 
	C493.530914,107.864563 493.733063,107.450600 493.935181,107.036644 
	C495.863037,107.036644 497.790863,107.036644 500.183044,107.036644 
z"/>
<path fill="#EBEFF2" opacity="1.000000" stroke="none" 
	d="
M309.871613,35.878632 
	C302.896515,35.878304 296.387329,36.117085 289.917175,35.720219 
	C288.160095,35.612438 286.520660,33.586304 284.827240,32.440628 
	C286.544250,31.334335 288.224304,29.346304 289.984589,29.272539 
	C298.130005,28.931194 306.305420,28.933775 314.451630,29.265776 
	C316.282166,29.340382 319.409241,31.063772 319.563293,32.319660 
	C319.969116,35.627434 317.008087,35.939548 314.348755,35.883293 
	C313.017120,35.855118 311.684448,35.878544 309.871613,35.878632 
z"/>
<path fill="#F9FAFB" opacity="1.000000" stroke="none" 
	d="
M203.565262,53.775505 
	C193.001480,53.794685 194.060623,54.945377 193.999527,44.793537 
	C193.987503,42.795940 193.997620,40.798206 193.997849,38.800537 
	C193.998734,31.043877 195.788788,29.565504 203.444809,31.260632 
	C204.361664,31.463631 205.774689,32.522408 205.791107,33.212261 
	C205.941193,39.525517 205.876022,45.845943 205.723190,52.160641 
	C205.710205,52.696571 204.608521,53.206150 203.565262,53.775505 
z"/>
<path fill="#F9FAFB" opacity="1.000000" stroke="none" 
	d="
M441.081024,121.837845 
	C438.407227,125.758072 435.202515,127.535309 431.145111,125.011490 
	C427.724121,122.883537 426.176117,119.682449 427.839142,115.589050 
	C429.422852,111.690872 433.013733,109.826920 436.634644,110.970993 
	C440.746582,112.270203 442.501190,116.262001 441.081024,121.837845 
z"/>
<path fill="#FAFBFC" opacity="1.000000" stroke="none" 
	d="
M368.621674,111.040863 
	C372.956573,113.567986 374.375916,117.101524 372.752563,121.332123 
	C370.989441,125.926971 367.086487,126.902802 362.308380,126.135300 
	C362.308380,120.940315 362.308380,115.733826 362.308380,110.041626 
	C364.442993,110.346977 366.346527,110.619278 368.621674,111.040863 
z"/>
</svg>